<svg id="visual" viewBox="0 0 1920 1080" width="1920" height="1080" xmlns="http://www.w3.org/2000/svg" xmlns:xlink="http://www.w3.org/1999/xlink" version="1.1"><g stroke-width="1" stroke-linejoin="bevel"><path d="M900 491L769 426L668 639Z" fill="#1a1a1a" stroke="#1a1a1a"></path><path d="M668 639L1007 636L900 491Z" fill="#353535" stroke="#353535"></path><path d="M446 388L533 647L668 639Z" fill="#000000" stroke="#000000"></path><path d="M668 639L900 853L1007 636Z" fill="#303030" stroke="#303030"></path><path d="M533 647L720 859L668 639Z" fill="#222222" stroke="#222222"></path><path d="M954 161L707 262L769 426Z" fill="#101010" stroke="#101010"></path><path d="M769 426L446 388L668 639Z" fill="#222222" stroke="#222222"></path><path d="M720 859L900 853L668 639Z" fill="#1a1a1a" stroke="#1a1a1a"></path><path d="M1140 917L1153 629L1007 636Z" fill="#1a1a1a" stroke="#1a1a1a"></path><path d="M1007 636L1163 416L900 491Z" fill="#272727" stroke="#272727"></path><path d="M900 491L954 161L769 426Z" fill="#101010" stroke="#101010"></path><path d="M707 262L446 388L769 426Z" fill="#080808" stroke="#080808"></path><path d="M1153 629L1163 416L1007 636Z" fill="#353535" stroke="#353535"></path><path d="M206 624L458 851L533 647Z" fill="#272727" stroke="#272727"></path><path d="M533 647L458 851L720 859Z" fill="#000000" stroke="#000000"></path><path d="M1163 416L954 161L900 491Z" fill="#000000" stroke="#000000"></path><path d="M536 0L508 196L707 262Z" fill="#303030" stroke="#303030"></path><path d="M707 262L508 196L446 388Z" fill="#222222" stroke="#222222"></path><path d="M900 853L1140 917L1007 636Z" fill="#000000" stroke="#000000"></path><path d="M1396 172L1179 162L1163 416Z" fill="#101010" stroke="#101010"></path><path d="M910 1080L1140 917L900 853Z" fill="#303030" stroke="#303030"></path><path d="M751 1080L900 853L720 859Z" fill="#1a1a1a" stroke="#1a1a1a"></path><path d="M444 1080L751 1080L720 859Z" fill="#272727" stroke="#272727"></path><path d="M751 1080L910 1080L900 853Z" fill="#101010" stroke="#101010"></path><path d="M184 214L236 434L446 388Z" fill="#1e1e1e" stroke="#1e1e1e"></path><path d="M446 388L206 624L533 647Z" fill="#101010" stroke="#101010"></path><path d="M954 161L774 0L707 262Z" fill="#222222" stroke="#222222"></path><path d="M1163 416L1179 162L954 161Z" fill="#272727" stroke="#272727"></path><path d="M954 161L922 0L774 0Z" fill="#151515" stroke="#151515"></path><path d="M1451 456L1163 416L1153 629Z" fill="#151515" stroke="#151515"></path><path d="M236 434L206 624L446 388Z" fill="#080808" stroke="#080808"></path><path d="M1196 0L922 0L954 161Z" fill="#000000" stroke="#000000"></path><path d="M206 624L239 840L458 851Z" fill="#151515" stroke="#151515"></path><path d="M458 851L444 1080L720 859Z" fill="#1a1a1a" stroke="#1a1a1a"></path><path d="M774 0L536 0L707 262Z" fill="#222222" stroke="#222222"></path><path d="M508 196L184 214L446 388Z" fill="#1a1a1a" stroke="#1a1a1a"></path><path d="M239 840L444 1080L458 851Z" fill="#2c2c2c" stroke="#2c2c2c"></path><path d="M1140 917L1400 668L1153 629Z" fill="#272727" stroke="#272727"></path><path d="M910 1080L1176 1080L1140 917Z" fill="#303030" stroke="#303030"></path><path d="M1140 917L1488 873L1400 668Z" fill="#272727" stroke="#272727"></path><path d="M1400 668L1451 456L1153 629Z" fill="#1a1a1a" stroke="#1a1a1a"></path><path d="M263 0L184 214L508 196Z" fill="#222222" stroke="#222222"></path><path d="M236 434L0 595L206 624Z" fill="#303030" stroke="#303030"></path><path d="M1396 172L1196 0L1179 162Z" fill="#151515" stroke="#151515"></path><path d="M1179 162L1196 0L954 161Z" fill="#222222" stroke="#222222"></path><path d="M1451 456L1396 172L1163 416Z" fill="#1e1e1e" stroke="#1e1e1e"></path><path d="M536 0L263 0L508 196Z" fill="#080808" stroke="#080808"></path><path d="M1443 1080L1488 873L1140 917Z" fill="#272727" stroke="#272727"></path><path d="M1677 695L1659 454L1451 456Z" fill="#272727" stroke="#272727"></path><path d="M206 624L0 851L239 840Z" fill="#1a1a1a" stroke="#1a1a1a"></path><path d="M239 840L183 1080L444 1080Z" fill="#1e1e1e" stroke="#1e1e1e"></path><path d="M0 408L0 595L236 434Z" fill="#101010" stroke="#101010"></path><path d="M0 408L236 434L184 214Z" fill="#000000" stroke="#000000"></path><path d="M0 851L183 1080L239 840Z" fill="#151515" stroke="#151515"></path><path d="M0 193L0 408L184 214Z" fill="#1e1e1e" stroke="#1e1e1e"></path><path d="M0 595L0 851L206 624Z" fill="#080808" stroke="#080808"></path><path d="M1176 1080L1443 1080L1140 917Z" fill="#303030" stroke="#303030"></path><path d="M0 0L0 193L184 214Z" fill="#272727" stroke="#272727"></path><path d="M1677 695L1451 456L1400 668Z" fill="#1e1e1e" stroke="#1e1e1e"></path><path d="M1451 456L1650 163L1396 172Z" fill="#1e1e1e" stroke="#1e1e1e"></path><path d="M1677 695L1400 668L1488 873Z" fill="#101010" stroke="#101010"></path><path d="M1650 163L1489 0L1396 172Z" fill="#353535" stroke="#353535"></path><path d="M1396 172L1489 0L1196 0Z" fill="#1e1e1e" stroke="#1e1e1e"></path><path d="M1694 901L1677 695L1488 873Z" fill="#353535" stroke="#353535"></path><path d="M0 851L0 1080L183 1080Z" fill="#000000" stroke="#000000"></path><path d="M1666 0L1650 163L1920 0Z" fill="#1a1a1a" stroke="#1a1a1a"></path><path d="M1659 454L1650 163L1451 456Z" fill="#303030" stroke="#303030"></path><path d="M263 0L0 0L184 214Z" fill="#1e1e1e" stroke="#1e1e1e"></path><path d="M1688 1080L1694 901L1488 873Z" fill="#353535" stroke="#353535"></path><path d="M1920 226L1650 163L1659 454Z" fill="#000000" stroke="#000000"></path><path d="M1443 1080L1688 1080L1488 873Z" fill="#303030" stroke="#303030"></path><path d="M1920 666L1659 454L1677 695Z" fill="#000000" stroke="#000000"></path><path d="M1650 163L1666 0L1489 0Z" fill="#222222" stroke="#222222"></path><path d="M1920 862L1677 695L1694 901Z" fill="#353535" stroke="#353535"></path><path d="M1920 862L1920 666L1677 695Z" fill="#000000" stroke="#000000"></path><path d="M1920 666L1920 449L1659 454Z" fill="#353535" stroke="#353535"></path><path d="M1920 1080L1920 862L1694 901Z" fill="#353535" stroke="#353535"></path><path d="M1920 449L1920 226L1659 454Z" fill="#1a1a1a" stroke="#1a1a1a"></path><path d="M1688 1080L1920 1080L1694 901Z" fill="#151515" stroke="#151515"></path><path d="M1920 226L1920 0L1650 163Z" fill="#2c2c2c" stroke="#2c2c2c"></path></g></svg>